<svg width="157" height="47" viewBox="0 0 157 47" fill="none" xmlns="http://www.w3.org/2000/svg">
<path d="M129.116 33.9923C127.038 33.9923 124.955 33.261 123.376 31.8024C120.208 28.8775 120.208 24.1225 123.376 21.1976C124.909 19.7815 126.95 19 129.116 19C131.282 19 133.323 19.7815 134.856 21.1976L135.992 22.2461L127.034 30.5914C128.848 31.3768 131.081 31.0789 132.577 29.6977L133.716 28.6453L136 30.7539L134.86 31.8063C133.277 33.2688 131.198 34 129.12 34L129.116 33.9923ZM129.116 21.9791C127.809 21.9791 126.581 22.4511 125.655 23.3023C124.134 24.7067 123.824 26.8153 124.729 28.5061L131.253 22.4318C130.595 22.1377 129.87 21.9791 129.116 21.9791Z" fill="white"/>
<path d="M106.508 19C104.401 19 102.471 19.774 100.983 21.0472V19H98V34H100.983V27.4985C100.983 24.4567 103.463 21.9799 106.508 21.9799H108V19H106.508Z" fill="white"/>
<path d="M144 21.9799V19H137V28.582C137 31.5697 139.461 34 142.491 34H144V31.0201H142.491C141.127 31.0201 140.018 29.9249 140.018 28.5782V21.976H144V21.9799Z" fill="white"/>
<path d="M151.702 33.9961C150.114 33.9961 148.374 33.5203 146.825 32.6113L146 32.1316L147.522 29.5707L148.347 30.0504C150.13 31.0949 152.068 31.207 153.061 30.7815C153.629 30.5378 153.769 30.1819 153.824 29.9382C153.937 29.4353 153.804 29.1607 153.691 28.9943C153.322 28.4412 152.36 27.9924 151.056 27.7565C149.238 27.4857 147.748 26.6849 146.903 25.5167C146.261 24.6308 146.012 23.5632 146.199 22.5071C146.44 21.1416 147.273 20.07 148.55 19.4859C150.48 18.6001 153.294 18.9444 155.712 20.364L157 21.1184L155.478 23.6792L154.19 22.9249C152.384 21.865 150.648 21.7992 149.799 22.186C149.418 22.3601 149.215 22.6193 149.145 23.0216C149.094 23.2924 149.157 23.5438 149.332 23.7837C149.698 24.2904 150.507 24.6695 151.547 24.8281C153.754 25.2227 155.346 26.0931 156.186 27.3542C156.817 28.298 157.008 29.416 156.747 30.592C156.451 31.9111 155.564 32.9517 154.252 33.5165C153.493 33.8414 152.625 34 151.702 34V33.9961Z" fill="white"/>
<path d="M87.5 19C83.363 19 80 22.363 80 26.5C80 30.637 83.363 34 87.5 34C89.1989 34 90.7624 33.4272 92.0201 32.4714V34H95V26.5C95 22.363 91.637 19 87.5 19ZM87.5 31.0201C85.0077 31.0201 82.9799 28.9923 82.9799 26.5C82.9799 24.0077 85.0077 21.9799 87.5 21.9799C89.9923 21.9799 92.0201 24.0077 92.0201 26.5C92.0201 28.9923 89.9923 31.0201 87.5 31.0201Z" fill="white"/>
<path d="M72.7554 19C71.2817 19 69.9504 19.6192 69 20.606C68.0457 19.6192 66.7144 19 65.2407 19C64.425 19 63.6554 19.1935 62.9628 19.5302V19H60V34H62.9628V24.2709C62.9628 23.0093 63.9825 21.9799 65.2407 21.9799C66.4989 21.9799 67.5186 23.0054 67.5186 24.2709V34H70.4814V24.2709C70.4814 23.0093 71.5011 21.9799 72.7593 21.9799C74.0175 21.9799 75.0372 23.0054 75.0372 24.2709V34H78V24.2709C78 21.3646 75.649 19 72.7593 19H72.7554Z" fill="white"/>
<path d="M123 34L114.936 26.1788L123 19H118.507L113.1 23.791V19H110V34H113.1V28.5898L118.616 34H123Z" fill="white"/>
<path d="M53.4161 12.3215C48.3485 0.906441 32.6336 -3.33872 18.3227 2.83391C4.0117 9.00654 -3.48376 23.2635 1.58387 34.6785C6.65151 46.0936 22.3664 50.3387 36.6773 44.1661C50.9883 37.9935 58.4838 23.7365 53.4161 12.3215ZM26.0181 25.0215H15.7468V21.9746H26.0181V25.0215ZM26.0181 16.4484H15.5349C14.015 16.4484 12.7791 17.4732 12.7791 18.7385V28.2576C12.7791 29.5189 14.015 30.5477 15.5349 30.5477H26.0181V33.5946H15.5349C12.3071 33.5946 9.68329 31.202 9.68329 28.2576V18.7385C9.68329 15.7941 12.3071 13.4015 15.5349 13.4015H26.0181V16.4484ZM45.3207 16.4484H34.8375C33.3176 16.4484 32.0817 17.4732 32.0817 18.7385V28.2576C32.0817 29.5189 33.3176 30.5477 34.8375 30.5477H45.3207V33.5946H34.8375C31.6097 33.5946 28.9859 31.202 28.9859 28.2576V18.7385C28.9859 15.7941 31.6097 13.4015 34.8375 13.4015H45.3207V16.4484Z" fill="white"/>
<path d="M139.886 16.4367C141.218 15.8537 141.915 14.5072 141.443 13.4292C140.971 12.3512 139.509 11.9499 138.177 12.5329C136.845 13.1159 136.148 14.4624 136.62 15.5404C137.092 16.6184 138.554 17.0197 139.886 16.4367Z" fill="white"/>
</svg>
